<?xml version="1.0" encoding="iso-8859-1"?>
<!-- Generator: Adobe Illustrator 19.0.0, SVG Export Plug-In . SVG Version: 6.00 Build 0)  -->
<svg version="1.1" id="Capa_1" xmlns="http://www.w3.org/2000/svg" xmlns:xlink="http://www.w3.org/1999/xlink" x="0px" y="0px"
	 viewBox="0 0 452.31 452.31" style="enable-background:new 0 0 452.31 452.31;" xml:space="preserve">
<g>
	<g>
		<path d="M373.104,114.589c0.226-2.708,0.384-5.436,0.384-8.4C373.508,47.563,325.999,0.021,267.373,0
			c-20.667-0.007-40.887,6.019-58.178,17.338c-14.618,9.619-26.667,22.661-35.1,37.994c-3.234-0.333-6.482-0.5-9.733-0.5
			c-18.654-0.028-36.792,6.126-51.578,17.5c-13.309,10.213-23.439,24-29.209,39.752c-6.498,3.444-12.45,7.83-17.664,13.017
			c-28.861,28.781-28.926,75.508-0.146,104.369c13.888,13.927,32.76,21.734,52.427,21.688h22.978v110.38
			c-0.135,12.909,10.22,23.483,23.128,23.619c0.047,0.001,0.095,0.001,0.143,0.001H292.9c12.91-0.057,23.329-10.568,23.272-23.477
			c0-0.048-0.001-0.095-0.001-0.143v-110.38h17.978c40.752,0.1,73.87-32.856,73.969-73.608
			C408.181,151.904,394.923,128.066,373.104,114.589z M296.171,361.538c0.142,1.852-1.245,3.469-3.097,3.611
			c-0.058,0.004-0.116,0.007-0.174,0.009H164.442c-1.857-0.046-3.326-1.589-3.28-3.446c0.001-0.058,0.004-0.116,0.009-0.174v-173.15
			c-0.108-1.678,1.165-3.125,2.843-3.233c0.143-0.009,0.286-0.008,0.428,0.003h66.729v43.755c0.166,10.106,8.393,18.219,18.5,18.245
			h46.5V361.538z M251.171,227.158v-29.471l31.416,29.471H251.171z M382.538,201.137c-9.077,18.423-27.851,30.071-48.389,30.022
			h-18.77c-0.517-0.985-1.202-1.872-2.023-2.622l-64.615-60.87c-1.88-1.692-4.342-2.59-6.87-2.508h-77.429
			c-12.726-0.126-23.145,10.089-23.271,22.815c-0.001,0.138-0.001,0.277,0,0.415v42.77h-22.978
			c-29.732,0.074-53.895-23.969-53.969-53.701c-0.036-14.354,5.663-28.128,15.829-38.262c4.624-4.56,10.012-8.273,15.918-10.972
			l4.023-1.865l1.306-4.237c8.567-27.844,34.5-47.288,63.068-47.288c4.507-0.018,9.004,0.401,13.43,1.251l7.72,1.545l3.313-7.142
			c14.441-31.138,44.507-50.482,78.465-50.482c47.583,0.055,86.143,38.617,86.194,86.2c-0.063,3.925-0.327,7.845-0.791,11.743
			l-0.807,8.068l6.164,3.082C384.709,142.231,395.67,174.483,382.538,201.137z"/>
	</g>
</g>
<g>
	<g>
		<path d="M406.184,320.508l-27.942-27.963c-3.905-3.905-10.237-3.905-14.142,0l-27.963,27.964c-3.905,3.905-3.905,10.237,0,14.142
			c3.795,3.859,10,3.911,13.859,0.116c0.039-0.038,0.078-0.077,0.116-0.116l11.059-11.226V442.31c0,5.523,4.477,10,10,10
			c5.523,0,10-4.477,10-10V324.091l10.725,10.559c3.955,3.904,10.313,3.904,14.268,0
			C410.074,330.751,410.083,324.419,406.184,320.508z"/>
	</g>
</g>
<g>
	<g>
		<path d="M116.184,320.508l-27.942-27.963c-3.905-3.905-10.237-3.905-14.142,0l-27.963,27.964c-3.905,3.905-3.905,10.237,0,14.142
			c3.795,3.859,10,3.911,13.859,0.116c0.039-0.038,0.078-0.077,0.116-0.116l11.059-11.226V442.31c0,5.523,4.477,10,10,10
			s10-4.477,10-10V324.091l10.725,10.559c3.955,3.904,10.313,3.904,14.268,0C120.074,330.751,120.083,324.419,116.184,320.508z"/>
	</g>
</g>
<g>
	<g>
		<path d="M272.633,297.158h-90.631c-5.523,0-10,4.477-10,10c0,5.523,4.477,10,10,10h90.631c5.523,0,10-4.477,10-10
			C282.633,301.635,278.155,297.158,272.633,297.158z"/>
	</g>
</g>
<g>
	<g>
		<path d="M233.386,265.158h-51.384c-5.523,0-10,4.477-10,10c0,5.523,4.477,10,10,10h51.384c5.523,0,10-4.477,10-10
			C243.386,269.635,238.908,265.158,233.386,265.158z"/>
	</g>
</g>
<g>
	<g>
		<path d="M272.633,330.158h-90.631c-5.523,0-10,4.477-10,10c0,5.523,4.477,10,10,10h90.631c5.523,0,10-4.477,10-10
			C282.633,334.635,278.155,330.158,272.633,330.158z"/>
	</g>
</g>
<g>
</g>
<g>
</g>
<g>
</g>
<g>
</g>
<g>
</g>
<g>
</g>
<g>
</g>
<g>
</g>
<g>
</g>
<g>
</g>
<g>
</g>
<g>
</g>
<g>
</g>
<g>
</g>
<g>
</g>
</svg>
