<svg height="512pt" viewBox="-16 0 512 512" width="512pt" xmlns="http://www.w3.org/2000/svg"><path d="m378.90625 394.292969h-210.046875c-4.171875 0-7.554687 3.386719-7.554687 7.558593 0 4.171876 3.382812 7.554688 7.554687 7.554688h210.042969c4.175781 0 7.558594-3.382812 7.558594-7.554688 0-4.171874-3.382813-7.558593-7.554688-7.558593zm0 0"/><path d="m378.90625 341.214844h-210.046875c-4.171875 0-7.554687 3.382812-7.554687 7.554687 0 4.175781 3.382812 7.558594 7.554687 7.558594h210.042969c4.175781 0 7.558594-3.382813 7.558594-7.558594 0-4.171875-3.382813-7.554687-7.554688-7.554687zm0 0"/><path d="m161.304688 295.660156c0 4.175782 3.382812 7.558594 7.554687 7.558594h133.660156c4.175781 0 7.558594-3.382812 7.558594-7.558594 0-4.171875-3.382813-7.554687-7.558594-7.554687h-133.660156c-4.171875 0-7.554687 3.382812-7.554687 7.554687zm0 0"/><path d="m458.664062 99.132812-13.625-14.789062v-52.894531c0-17.339844-14.148437-31.449219-31.542968-31.449219h-338.003906c-17.394532 0-31.542969 14.109375-31.542969 31.449219v59.664062h-13.820313c-16.613281 0-30.128906 13.523438-30.128906 30.144531v91.480469c0 16.621094 13.515625 30.144531 30.128906 30.144531h13.820313v210.800782c0 17.339844 14.148437 31.449218 31.542969 31.449218h17.265624c1.859376 15.121094 14.777344 26.867188 30.398438 26.867188h325.1875c16.910156 0 30.664062-13.738281 30.664062-30.625v-326.421875c0-26.714844-.804687-34.578125-20.34375-55.820313zm4.917969 40.269532h-56.609375c-8.574218 0-15.550781-6.957032-15.550781-15.503906l.050781-65.714844c9.9375.738281 12.589844 3.675781 21.300782 13.363281 1.445312 1.609375 3.023437 3.359375 4.777343 5.265625l14.445313 15.679688c.050781.054687.101562.113281.15625.167968l15.390625 16.707032c12 13.046874 15.191406 18.523437 16.039062 30.035156zm-404.519531-107.953125c0-9.007813 7.371094-16.335938 16.429688-16.335938h338.003906c9.058594 0 16.429687 7.328125 16.429687 16.335938v36.488281l-1.257812-1.367188c-1.714844-1.855468-3.246094-3.5625-4.652344-5.128906-12.421875-13.8125-17.851563-18.589844-40.085937-18.589844h-.003907-260.769531c-16.894531 0-30.636719 13.738282-30.636719 30.625v17.636719h-33.457031zm404.832031 449.925781c0 8.550781-6.976562 15.511719-15.550781 15.511719h-325.1875c-8.558594 0-15.523438-6.957031-15.523438-15.511719v-109.507812c0-4.171876-3.382812-7.554688-7.558593-7.554688-4.171875 0-7.554688 3.382812-7.554688 7.554688v98.152343h-17.027343c-9.058594 0-16.429688-7.328125-16.429688-16.332031v-210.804688h33.457031v94.382813c0 4.171875 3.382813 7.554687 7.554688 7.554687 4.175781 0 7.558593-3.382812 7.558593-7.554687v-94.382813h39.226563c4.171875 0 7.554687-3.382812 7.554687-7.558593 0-4.171875-3.382812-7.554688-7.554687-7.554688h-116.730469c-8.28125 0-15.015625-6.742187-15.015625-15.03125v-91.480469c0-8.289062 6.734375-15.03125 15.015625-15.03125h199.011719c8.292969 0 15.042969 6.742188 15.042969 15.03125v91.480469c0 8.289063-6.75 15.03125-15.042969 15.03125h-47.660156c-4.175781 0-7.558594 3.382813-7.558594 7.554688 0 4.175781 3.382813 7.558593 7.558594 7.558593h47.660156c16.628906 0 30.15625-13.523437 30.15625-30.144531v-91.480469c0-16.621093-13.527344-30.144531-30.15625-30.144531h-121.507813v-17.636719c0-8.554687 6.964844-15.511718 15.523438-15.511718h253.203125l-.050781 65.929687c0 16.886719 13.757812 30.625 30.664062 30.625h56.921875v.433594zm0 0"/><path d="m75.648438 134.636719h-18.101563c-2.222656 0-4.113281.777343-5.667969 2.335937-1.554687 1.554688-2.332031 3.472656-2.332031 5.757813v53.515625c0 2.222656.761719 4.09375 2.285156 5.617187 1.523438 1.527344 3.335938 2.289063 5.429688 2.289063 2.097656 0 3.90625-.761719 5.429687-2.289063 1.527344-1.523437 2.289063-3.332031 2.289063-5.425781v-15.519531h11.621093c7.050782 0 12.703126-2.109375 16.957032-6.332031 4.253906-4.222657 6.382812-9.761719 6.382812-16.617188 0-6.917969-2.253906-12.539062-6.761718-16.855469-4.511719-4.316406-10.355469-6.476562-17.53125-6.476562zm5.621093 29.996093c-1.84375 1.84375-4 2.761719-6.476562 2.761719h-9.8125v-18.949219h9.90625c2.605469 0 4.777343.9375 6.527343 2.808594 1.746094 1.875 2.617188 4.144532 2.617188 6.808594 0 2.539062-.917969 4.730469-2.761719 6.570312zm0 0"/><path d="m163.273438 152.777344c-2.253907-4.917969-5.414063-8.871094-9.476563-11.855469-5.652344-4.125-12.957031-6.1875-21.910156-6.1875h-15.910157c-2.226562 0-4.097656.792969-5.621093 2.378906-1.527344 1.589844-2.289063 3.398438-2.289063 5.429688v53.039062c0 2.285157.730469 4.15625 2.191406 5.617188 1.585938 1.398437 3.523438 2.09375 5.8125 2.09375h17.148438c9.269531 0 16.703125-2.507813 22.292969-7.523438 7.429687-6.789062 11.144531-15.773437 11.144531-26.945312 0-5.777344-1.128906-11.125-3.382812-16.046875zm-17.480469 30.996094c-3.304688 3.746093-7.683594 5.617187-13.148438 5.617187h-9.144531v-40.660156h8.289062c5.84375 0 10.464844 1.808593 13.863282 5.429687 3.394531 3.617188 5.09375 8.503906 5.09375 14.664063 0 6.222656-1.652344 11.203125-4.953125 14.949219zm0 0"/><path d="m184.402344 204.34375c2.15625 0 3.984375-.765625 5.476562-2.289062 1.492188-1.523438 2.238282-3.332032 2.238282-5.425782v-20.472656h14.671874c2.097657 0 3.84375-.679688 5.238282-2.046875 1.398437-1.363281 2.097656-3 2.097656-4.90625 0-1.964844-.714844-3.632813-2.144531-4.996094-1.429688-1.363281-3.160157-2.046875-5.191407-2.046875h-14.671874v-13.429687h17.339843c1.96875 0 3.621094-.695313 4.953125-2.09375 1.335938-1.394531 2-3.015625 2-4.855469 0-2.03125-.679687-3.730469-2.046875-5.09375-1.367187-1.367188-3-2.046875-4.90625-2.046875h-24.960937c-2.222656 0-4.097656.792969-5.621094 2.378906-1.523438 1.589844-2.285156 3.429688-2.285156 5.523438v54.085937c0 2.097656.792968 3.90625 2.382812 5.429688 1.585938 1.519531 3.394532 2.285156 5.429688 2.285156zm0 0"/></svg>